<?xml version="1.0" encoding="UTF-8"?>
<svg id="Layer_2" data-name="Layer 2" xmlns="http://www.w3.org/2000/svg" viewBox="0 0 150 150">
  <defs>
    <style>
      .cls-1 {
        fill: #fff;
        stroke-width: 0px;
      }
    </style>
  </defs>
  <path id="Path_2525" data-name="Path 2525" class="cls-1" d="m142.64,130.76c1.3.01,2.36-1.03,2.37-2.33,0-.05,0-.11,0-.16,0-1.76-1.06-2.6-3.24-2.6h-3.52v9.22h1.33v-4.02h1.63l.04.05,2.53,3.97h1.42l-2.72-4.11.18-.03Zm-1.53-.92h-1.54v-3.12h1.95c1.01,0,2.15.16,2.15,1.48,0,1.52-1.16,1.64-2.57,1.64"/>
  <path id="Path_2520" data-name="Path 2520" class="cls-1" d="m108.07,119.2h-18.79v-29.43c0-7.02-.13-16.05-9.77-16.05s-11.29,7.65-11.29,15.54v29.94h-18.79v-60.52h18.04v8.27h.25c3.68-6.29,10.52-10.05,17.8-9.78,19.05,0,22.56,12.53,22.56,28.83v33.2ZM28.22,50.41c-6.02,0-10.91-4.88-10.91-10.9,0-6.02,4.88-10.91,10.9-10.91,6.02,0,10.91,4.88,10.91,10.9s-4.88,10.91-10.9,10.91h0m9.4,68.8h-18.81v-60.52h18.81v60.52ZM117.44,11.14H9.36C4.25,11.09.06,15.18,0,20.29v108.53c.06,5.11,4.25,9.21,9.36,9.15h108.08c5.12.06,9.33-4.03,9.4-9.15V20.28c-.07-5.12-4.28-9.21-9.4-9.14"/>
  <path id="Path_2526" data-name="Path 2526" class="cls-1" d="m141.27,121.57c-4.78.05-8.61,3.96-8.57,8.73.05,4.78,3.96,8.61,8.73,8.57,4.78-.05,8.61-3.96,8.57-8.73-.05-4.71-3.85-8.52-8.57-8.57h-.17m0,16.31c-4.19.07-7.64-3.27-7.71-7.46s3.27-7.64,7.46-7.71c4.19-.07,7.64,3.27,7.71,7.46v.13c.09,4.1-3.16,7.49-7.26,7.58h-.2"/>
</svg>