<?xml version="1.0" encoding="UTF-8"?>
<svg id="Layer_1" data-name="Layer 1" xmlns="http://www.w3.org/2000/svg" viewBox="0 0 150 150">
  <defs>
    <style>
      .cls-1 {
        fill: #fff;
        stroke-width: 0px;
      }
    </style>
  </defs>
  <path class="cls-1" d="m146.87,38.9c-1.73-6.45-6.81-11.54-13.26-13.26-11.7-3.13-58.6-3.13-58.6-3.13,0,0-46.91,0-58.6,3.13-6.45,1.73-11.54,6.81-13.26,13.26C0,50.59,0,75,0,75c0,0,0,24.41,3.13,36.1,1.73,6.45,6.81,11.54,13.26,13.26,11.7,3.13,58.6,3.13,58.6,3.13,0,0,46.91,0,58.6-3.13,6.45-1.73,11.54-6.81,13.26-13.26,3.13-11.7,3.13-36.1,3.13-36.1,0,0,0-24.41-3.13-36.1Zm-86.87,58.6v-45l38.97,22.5-38.97,22.5Z"/>
</svg>