<svg xmlns="http://www.w3.org/2000/svg" class="logo-animated" width="500" height="500" viewBox="0 0 125 16">
            <g>
                <!-- H -->
                <path fill="#1C1C1C" d="M3.989 6.681h7.41a.356.356 0 00.358-.354V.877c0-.196.16-.355.358-.355h2.913c.198 0 .358.159.358.354V15.25c0 .196-.16.354-.358.354h-2.913a.356.356 0 01-.358-.354v-4.816a.356.356 0 00-.359-.355h-7.41a.356.356 0 00-.358.355v4.816c0 .196-.16.354-.358.354H.359A.357.357 0 010 15.249V.876C0 .681.16.522.359.522h2.913c.198 0 .358.159.358.354v5.45c0 .197.16.355.359.355"/>
                <!-- U -->
                <path fill="#1C1C1C" d="M35.166 9.158C35.166 14 31.633 16 28.036 16c-3.614 0-7.13-2-7.13-6.842V.751c0-.196.16-.354.358-.354h2.655c.198 0 .359.158.359.354v8.106c0 2.937 1.654 4.015 3.758 4.015s3.758-1.078 3.758-4.015V.75c0-.196.16-.354.358-.354h2.656c.198 0 .358.158.358.354v8.407z" transform="matrix(1,0,0,1,0,0)"/>
                <!-- M -->
                <path fill="#1C1C1C" d="M65.515 6.047v9.202c0 .196-.16.354-.358.354H62.5a.356.356 0 01-.359-.354V7.143c0-2.556-1.333-3.985-3.58-3.985-2.169 0-3.984 1.413-3.984 4.016v8.075c0 .196-.16.354-.358.354h-2.656a.356.356 0 01-.358-.354V7.143c0-2.556-1.333-3.985-3.582-3.985-2.167 0-3.983 1.413-3.983 4.016v8.075c0 .196-.16.354-.358.354h-2.656a.356.356 0 01-.358-.354V.75c0-.196.16-.354.358-.354h2.624c.198 0 .359.158.359.354v1.502C44.846.46 46.757 0 48.332 0c2.148 0 3.934.866 5.033 2.307.145.19.434.163.578-.029C55.312.466 57.491 0 59.267 0c3.662 0 6.248 2.492 6.248 6.047"/>
                <!-- A -->
                <path fill="#020303" class="logo-default" d="M77.6004093,12.8725498 C79.9528946,12.8725498 81.6489885,11.371095 82.113784,9.22443578 C82.1979522,8.83570487 82.2417432,8.42581621 82.2417432,7.99985443 C82.2417432,7.47372211 82.1749144,6.97207397 82.0476927,6.50450992 C81.5032268,4.50349251 79.8526355,3.12674321 77.6004093,3.12674321 C74.7095695,3.12674321 72.9590755,5.33268176 72.9590755,7.99985443 C72.9590755,10.6661953 74.7095695,12.8725498 77.6004093,12.8725498 Z M82.3031788,15.6029394 C82.1542185,15.6029394 82.0330305,15.4835758 82.0330305,15.3363469 L82.0330305,13.7775502 C80.9730559,15.1267328 79.3833043,15.9997089 77.1989739,15.9997089 C72.8951151,15.9997089 69.5064785,12.6508746 69.5064785,7.99985443 C69.5064785,3.34883431 72.8951151,-1.64313008e-13 77.1989739,-1.64313008e-13 C79.3833043,-1.64313008e-13 80.9730559,0.888780293 82.0330305,2.23796292 L82.0330305,0.663777888 C82.0330305,0.516133057 82.1542185,0.39676949 82.3031788,0.39676949 L85.1191178,0.39676949 C85.2684989,0.39676949 85.3892661,0.516133057 85.3892661,0.663777888 L85.3892661,15.3363469 C85.3892661,15.4835758 85.2684989,15.6029394 85.1191178,15.6029394 L82.3031788,15.6029394 Z" data-original="M77.6004093,12.8725498 C79.9528946,12.8725498 81.6489885,11.371095 82.113784,9.22443578 C82.1979522,8.83570487 82.2417432,8.42581621 82.2417432,7.99985443 C82.2417432,7.47372211 82.1749144,6.97207397 82.0476927,6.50450992 C81.5032268,4.50349251 79.8526355,3.12674321 77.6004093,3.12674321 C74.7095695,3.12674321 72.9590755,5.33268176 72.9590755,7.99985443 C72.9590755,10.6661953 74.7095695,12.8725498 77.6004093,12.8725498 Z M82.3031788,15.6029394 C82.1542185,15.6029394 82.0330305,15.4835758 82.0330305,15.3363469 L82.0330305,13.7775502 C80.9730559,15.1267328 79.3833043,15.9997089 77.1989739,15.9997089 C72.8951151,15.9997089 69.5064785,12.6508746 69.5064785,7.99985443 C69.5064785,3.34883431 72.8951151,-1.64313008e-13 77.1989739,-1.64313008e-13 C79.3833043,-1.64313008e-13 80.9730559,0.888780293 82.0330305,2.23796292 L82.0330305,0.663777888 C82.0330305,0.516133057 82.1542185,0.39676949 82.3031788,0.39676949 L85.1191178,0.39676949 C85.2684989,0.39676949 85.3892661,0.516133057 85.3892661,0.663777888 L85.3892661,15.3363469 C85.3892661,15.4835758 85.2684989,15.6029394 85.1191178,15.6029394 L82.3031788,15.6029394 Z"/>
                <!-- A -->
                <path fill="#020303" d="M92.997 8c0 2.666 1.751 4.873 4.642 4.873 2.778 0 4.64-2.095 4.64-4.873s-1.862-4.873-4.64-4.873c-2.89 0-4.642 2.206-4.642 4.873m12.072 7.603h-2.64a.356.356 0 01-.358-.354v-1.471c-1.06 1.349-2.65 2.222-4.834 2.222-4.304 0-7.692-3.35-7.692-8 0-4.651 3.388-8 7.692-8 2.184 0 3.775.889 4.834 2.238V.751c0-.196.16-.354.359-.354h2.639c.198 0 .359.158.359.354V15.25c0 .195-.16.354-.36.354"/>
                <!-- N -->
                
            </g>
        </svg>