<svg version="1.1" xmlns="http://www.w3.org/2000/svg" xmlns:xlink="http://www.w3.org/1999/xlink" xmlns:a="http://ns.adobe.com/AdobeSVGViewerExtensions/3.0/" x="0px" y="0px" width="395.7px" height="83.4px" viewBox="0 0 395.7 83.4" style="enable-background:new 0 0 395.7 83.4;" xml:space="preserve">
<defs>
</defs>
<path class="st0" stroke="#FFD91E" d="M368,78.9c-0.1,0-0.1,0-0.2,0h-63.1c-1.4,0.2-2.7-0.8-3-2.2c-0.1-1.1,1.1-2.2,1.2-2.2l52.3-50l14,14.5l0.1,0.1
	c0.7,0.7,1.1,1.6,1.1,2.6c0,1-0.4,1.9-1.1,2.6c-0.1,0.1-0.1,0.1-0.2,0.2l-14.8,15.4c-0.8,0.9-0.8,2.2,0,3.1l14.1,14.6
	c0,0,0.1,0.1,0.1,0.1c0.2,0.2,0.3,0.5,0.2,0.8C368.5,78.7,368.3,78.9,368,78.9L368,78.9z M301.1,8.1c0-2,1.6-3.6,3.6-3.6h63.2l0.1,0
	c0.3,0,0.5,0.2,0.6,0.5c0.1,0.3,0,0.6-0.2,0.7l-67.4,64.5V8.1z M358.9,61.4l13.4-13.9l0,0c1.6-1.5,2.5-3.6,2.5-5.8
	c0-2.2-0.9-4.3-2.5-5.8l-13.9-14.5l13.1-12.5c1.5-1.4,2-3.6,1.3-5.5c-0.7-1.9-2.5-3.3-4.5-3.4c-0.1,0-0.2,0-0.2,0h-63.4
	c-4.5,0-8.1,3.6-8.1,8.1v67.2c0,0.3,0,0.6,0.1,0.9l0,0.1c0,0.2,0.1,0.5,0.1,0.7c0,0,0,0.1,0,0.1c0.8,3.7,4.1,6.3,7.9,6.3H368
	c0.1,0,0.2,0,0.3,0c2.1-0.1,3.9-1.4,4.6-3.4c0.7-1.9,0.2-4.1-1.4-5.5L358.9,61.4z M175.4,78.9c-0.1,0-0.2,0-0.3,0c0,0-0.6,0-0.6,0
	h-70.8c-1,0-1.9-0.4-2.6-1.1c-0.7-0.7-1.1-1.6-1.1-2.6c0-0.5,0.1-0.9,0.2-1.4c0.3-0.7,0.8-1.3,1.5-1.7c0.3-0.2,0.6-0.3,1-0.4
	c0,0,0.1,0,0.1,0l44.3-13.9c5.3-1.5,9-6.4,9-11.9c0-1.3-0.2-2.5-0.6-3.7l-5.5-18.7l0,0.1l27.2,48.8l0.7,1.3c0.3,0.5,0.4,1.1,0.4,1.7
	C178.4,77.2,177.1,78.7,175.4,78.9z M138.4,5.2c0.1-0.1,0.1-0.2,0.2-0.3c0.1-0.2,0.3-0.3,0.6-0.3c0.2,0,0.5,0.1,0.6,0.4l1,1.9
	l10.5,36.7c0.3,0.8,0.4,1.6,0.4,2.4c0,3.6-2.4,6.7-5.8,7.7l-41.6,13C113.2,50.4,136.3,9,138.4,5.2z M182,71.8l-38.4-69
	c-0.9-1.6-2.5-2.6-4.3-2.7c-1.8-0.1-3.5,0.8-4.5,2.3c-0.1,0.1-0.2,0.2-0.2,0.3c-3.9,6.9-37.8,67.9-38,68.3c-0.7,1.3-1.1,2.7-1.1,4.2
	c0,4.5,3.6,8.1,8.1,8.1h71c0,0,0.3,0,0.4,0l0,0c2.1,0,4.1-0.8,5.6-2.3c1.5-1.5,2.3-3.5,2.3-5.6C182.9,74.2,182.6,72.9,182,71.8z
	 M273.4,78.9H204c-1.1,0-2.2-0.5-2.9-1.5c-0.5-0.6-0.7-1.4-0.6-2.2c0.1-0.8,0.6-1.5,1.3-1.9v0c0.1-0.1,0.4-0.2,0.5-0.2
	c0,0,0.1,0,0.1-0.1l37.4-15l33.7,19.4c0.1,0,0.1,0.1,0.2,0.1c0.3,0.1,0.4,0.5,0.4,0.8C274,78.7,273.7,78.9,273.4,78.9z M200.4,8.1
	c0-2,1.6-3.6,3.6-3.6h62.7c2,0,3.6,1.6,3.6,3.6c0,0.3,0,0.6-0.1,0.9c0,0.1-7.1,30.8-7.1,30.8c0,0,0,0.1,0,0.1
	c-0.5,2.7-2.3,5-4.8,6.1c-0.1,0-0.1,0.1-0.2,0.1l-57.7,23.1V8.1z M275.7,73.7L245.1,56l14.9-5.9c0.1,0,0.2-0.1,0.2-0.1
	c3.8-1.7,6.6-5.1,7.3-9.3c0,0,7.1-30.9,7.1-31c0.1-0.5,0.2-1,0.2-1.6c0-4.5-3.6-8.1-8.1-8.1H204c-4.5,0-8.1,3.6-8.1,8.1v67.2
	c0,4.5,3.6,8.1,8.1,8.1h69.4c2.4,0,4.4-1.6,5-3.9C278.9,77.1,277.8,74.7,275.7,73.7z M77.5,78.9H8.1c-1.1,0-2.2-0.5-2.9-1.5
	c-0.5-0.6-0.7-1.4-0.6-2.2c0.1-0.8,0.6-1.5,1.3-1.9v0c0.1-0.1,0.4-0.2,0.5-0.2c0,0,0.1,0,0.1-0.1l37.4-15l33.7,19.4
	c0.1,0,0.1,0.1,0.2,0.1c0.3,0.1,0.4,0.5,0.4,0.8C78.1,78.7,77.8,78.9,77.5,78.9L77.5,78.9z M4.4,8.1c0-2,1.6-3.6,3.6-3.6h62.7
	c2,0,3.6,1.6,3.6,3.6c0,0.3,0,0.6-0.1,0.9c0,0.1-7.1,30.8-7.1,30.8c0,0,0,0.1,0,0.1c-0.5,2.7-2.3,5-4.8,6.1c-0.1,0-0.1,0.1-0.2,0.1
	L4.4,69.1V8.1z M79.8,73.7L49.2,56L64,50.1c0.1,0,0.2-0.1,0.2-0.1c3.8-1.7,6.6-5.1,7.3-9.3c0,0,7.1-30.9,7.1-31
	c0.5-2.4-0.1-4.8-1.7-6.7C75.5,1.1,73.2,0,70.8,0H8.1C3.6,0,0,3.6,0,8.1v67.2c0,4.5,3.6,8.1,8.1,8.1h69.4c2.4,0,4.4-1.6,5-3.9
	C83,77.1,81.9,74.7,79.8,73.7z"></path>
<path class="st0" stroke="#FFD91E" d="M389.2,0.9h-1.5v5.2c0,0.1-0.1,0.3-0.2,0.3c-0.1,0.1-0.3,0.1-0.4,0c-0.1-0.1-0.2-0.2-0.2-0.3V0.9h-1.5
	c-0.1,0-0.2,0-0.3-0.1c-0.1-0.1-0.1-0.2-0.1-0.3c0-0.1,0-0.2,0.1-0.3c0.1-0.1,0.2-0.1,0.3-0.1h3.7c0.1,0,0.2,0,0.3,0.1
	c0.1,0.1,0.1,0.2,0.1,0.3c0,0.1,0,0.2-0.1,0.3C389.4,0.9,389.3,0.9,389.2,0.9z"></path>
<path class="st0" stroke="#FFD91E" d="M395.3,6.5c-0.1,0-0.2,0-0.3-0.1c-0.1-0.1-0.1-0.2-0.1-0.3V2.5l-1.6,3.8c-0.1,0.2-0.2,0.3-0.4,0.3
	c-0.1,0-0.3-0.1-0.4-0.3L391,2.5v3.7c0,0.2-0.2,0.4-0.4,0.4c-0.2,0-0.4-0.2-0.4-0.4V0.5c0-0.1,0-0.2,0.1-0.3
	c0.1-0.1,0.2-0.1,0.3-0.1c0.2,0,0.3,0.1,0.4,0.3l2,4.7l2-4.7c0.1-0.2,0.2-0.3,0.4-0.3c0.1,0,0.2,0.1,0.3,0.1
	c0.1,0.1,0.1,0.2,0.1,0.3v5.6c0,0.1,0,0.2-0.1,0.3C395.5,6.5,395.4,6.5,395.3,6.5z"></path>
</svg>