<svg xmlns="http://www.w3.org/2000/svg" xmlns:xlink="http://www.w3.org/1999/xlink" width="591.131" height="72.58" viewBox="0 0 591.131 72.58"><g id="logo-nav-small__background" transform="scale(0)"><path d="M72.58,36.29A36.29,36.29,0,1,1,36.29,0,36.291,36.291,0,0,1,72.58,36.29" fill="#FF0032"></path></g><g id="logo-nav-small"><path d="M44.666,18.733l-8.374,13.6-8.379-13.6H17.631V53.845h9.53V33.732L36.09,47.424h.2l8.976-13.742V53.845h9.681V18.733Z" fill="#171717"></path></g><g id="logo-nav-full"><path d="M418.832,36.391v-.1c0-10.231,8.025-18.258,18.86-18.258A20.452,20.452,0,0,1,451.937,23.1l-5.718,6.922a12.294,12.294,0,0,0-8.478-3.311c-5.065,0-8.978,4.215-8.978,9.58v.1c0,5.718,3.963,9.781,9.531,9.781a9.688,9.688,0,0,0,5.618-1.456V40.454h-6.873V33.33h16.1V49.081a23.379,23.379,0,0,1-15.25,5.468c-10.933,0-19.059-7.524-19.059-18.158" fill="#171717"></path><path d="M471.549,35.588c3.26,0,5.217-1.6,5.217-4.163v-.1c0-2.81-2.056-4.215-5.266-4.215h-6.421v8.477Zm-16.2-16.853h16.6c5.367,0,9.081,1.4,11.437,3.763a10.951,10.951,0,0,1,3.109,8.175v.1a11.128,11.128,0,0,1-7.222,10.835l8.377,12.238H476.464l-7.072-10.634h-4.313V53.847h-9.73Z" fill="#171717"></path><path d="M514.889,36.391v-.1c0-5.116-3.611-9.479-8.978-9.479s-8.929,4.313-8.929,9.379v.1c0,5.066,3.663,9.482,9.03,9.482,5.316,0,8.877-4.314,8.877-9.381m-27.838,0v-.1c0-10.081,8.126-18.258,18.961-18.258s18.86,8.076,18.86,18.158v.1c0,10.082-8.126,18.259-18.961,18.259s-18.86-8.075-18.86-18.158" fill="#171717"></path><path d="M526.277,38.448V18.735h9.831V38.247c0,5.065,2.557,7.474,6.47,7.474,3.962,0,6.521-2.308,6.521-7.224V18.735h9.831V38.2c0,11.285-6.47,16.3-16.453,16.3-9.929,0-16.2-5.065-16.2-16.05" fill="#171717"></path><path d="M575.884,36.19c3.411,0,5.568-1.855,5.568-4.615v-.1c0-3.009-2.157-4.566-5.618-4.566h-4.615v9.28ZM561.489,18.735h15.1c8.828,0,14.545,4.566,14.545,12.289v.1c0,8.327-6.37,12.69-15.046,12.69h-4.866V53.847h-9.73Z" fill="#171717"></path><path d="M77.923,30.023l3.913,9.929H73.961ZM73.308,18.485l-14.9,35.36H68.594l2.508-6.32H84.694l2.508,6.32H97.636L82.689,18.485Z" fill="#171717"></path><path d="M117.252,35.587c3.262,0,5.217-1.6,5.217-4.163v-.1c0-2.81-2.056-4.215-5.266-4.215h-6.421v8.477Zm-16.2-16.853h16.6c5.367,0,9.079,1.405,11.437,3.763a10.96,10.96,0,0,1,3.107,8.175v.1a11.128,11.128,0,0,1-7.222,10.835l8.377,12.238H122.167L115.1,43.212h-4.313V53.846h-9.73Z" fill="#171717"></path><path d="M157.99,18.733,145.852,32.98V18.733h-9.73V53.845h9.73V44.717l3.559-3.913,8.878,13.041h11.638L156.184,33.781l13.291-15.048Z" fill="#171717"></path><path d="M172.742,18.733V53.845h28.489V45.571h-18.86V40h16.854V32.329H182.371v-5.37h18.61V18.733Z" fill="#171717"></path><path d="M204.349,18.733v8.528h10.482V53.845h9.732V27.261H235.1V18.733Z" fill="#171717"></path><path d="M238.216,18.734V53.846h9.73V41.308h16.6V33.231h-16.6V27.262H266.3V18.734Z" fill="#171717"></path><path d="M296.454,36.391v-.1c0-5.116-3.611-9.479-8.978-9.479s-8.929,4.313-8.929,9.379v.1c0,5.066,3.663,9.482,9.028,9.482,5.318,0,8.879-4.314,8.879-9.381m-27.838,0v-.1c0-10.081,8.126-18.258,18.959-18.258s18.862,8.076,18.862,18.158v.1c0,10.082-8.128,18.259-18.961,18.259s-18.86-8.075-18.86-18.158" fill="#171717"></path><path d="M326.65,35.588c3.262,0,5.217-1.6,5.217-4.163v-.1c0-2.81-2.056-4.215-5.264-4.215h-6.421v8.477Zm-16.2-16.853h16.6c5.367,0,9.079,1.4,11.437,3.763a10.962,10.962,0,0,1,3.11,8.175v.1a11.127,11.127,0,0,1-7.225,10.835l8.377,12.238H331.568L324.5,43.213h-4.314V53.847H310.45Z" fill="#171717"></path><path d="M344.362,36.391v-.1a18,18,0,0,1,18.46-18.258c7.172,0,11.788,3.011,14.9,7.273l-7.323,5.67c-2-2.459-4.314-4.113-7.674-4.113-4.915,0-8.376,4.213-8.376,9.328v.1c0,5.267,3.461,9.381,8.376,9.381,3.662,0,5.819-1.705,7.924-4.264l7.325,5.217c-3.313,4.564-7.776,7.925-15.5,7.925a17.83,17.83,0,0,1-18.108-18.158" fill="#171717"></path><path d="M381.183,18.734V53.846h28.489V45.572h-18.86V40h16.854V32.33H390.812V26.96h18.61V18.734Z" fill="#171717"></path></g></svg>