<?xml version="1.0" encoding="utf-8"?>
<!-- Generator: Adobe Illustrator 28.0.0, SVG Export Plug-In . SVG Version: 6.00 Build 0)  -->
<svg version="1.1" id="Layer_1" xmlns="http://www.w3.org/2000/svg" xmlns:xlink="http://www.w3.org/1999/xlink" x="0px" y="0px"
	 viewBox="0 0 331.6 75.4" style="enable-background:new 0 0 331.6 75.4;" xml:space="preserve">
<style type="text/css">
	.st0{fill:#FFFFFF;}
</style>
<g>
	<path class="st0" d="M100.3,75.1h-9.8c-0.6-1.6-0.9-3.3-1-5c-0.1-1.9-0.3-3.8-0.6-5.6c-0.1-1.9-0.9-3.7-2.1-5.1
		c-1.1-1.1-2.8-1.6-5.3-1.6h-9.8v17.4H62V34.8l9.8,4.3v5.2c0.1,0.4,0.3,0.9,0.5,1.3c0.5,1,1.2,1.9,2.1,2.5c0.9,0.7,2,1.2,3.1,1.4
		c1.2,0.3,2.5,0.5,3.7,0.5c0.9,0,1.9-0.1,2.8-0.2c1-0.1,1.9-0.4,2.8-0.8c0.8-0.4,1.6-1,2.2-1.7c0.6-0.8,0.9-1.8,0.9-2.8
		c0-1.1-0.4-2.2-1.2-2.9c-0.9-0.8-1.9-1.5-3-1.9c-1.4-0.5-2.8-1-4.2-1.3c-1.6-0.4-3.2-0.8-4.8-1.2c-1.6-0.4-3.3-0.9-4.9-1.5
		c-1.5-0.6-2.9-1.4-4.2-2.3c-2.7-2.1-4.3-5.3-4.2-8.8c-0.1-2.1,0.5-4.1,1.5-5.9c1-1.7,2.3-3.1,3.8-4.2c1.6-1.1,3.4-2,5.4-2.5
		c1.9-0.5,4-0.8,6-0.8c2.3,0,4.5,0.3,6.7,0.8c2,0.5,4,1.3,5.7,2.5c1.6,1.2,3,2.7,4,4.5c1,2,1.5,4.3,1.5,6.6h-9.5
		c0-1.1-0.3-2.3-0.8-3.3c-0.4-0.8-1.1-1.5-1.9-2.1c-0.8-0.5-1.7-0.9-2.7-1.1c-1.1-0.2-2.2-0.3-3.3-0.3c-0.8,0-1.6,0.1-2.4,0.3
		c-0.8,0.2-1.5,0.4-2.1,0.9c-0.6,0.4-1.2,0.9-1.6,1.6c-0.4,0.7-0.7,1.5-0.6,2.4c0,0.7,0.1,1.5,0.5,2.1c0.5,0.7,1.2,1.2,2,1.5
		c1.3,0.6,2.7,1,4,1.4c1.7,0.5,4,1,6.8,1.7c0.8,0.2,2,0.5,3.5,0.9c1.6,0.5,3,1.2,4.4,2.1c1.5,1,2.8,2.3,3.8,3.8
		c1.1,1.8,1.7,4,1.6,6.1c0,2-0.4,3.9-1.2,5.7c-0.8,1.8-2,3.3-3.5,4.5c-0.5,0.4-1,0.8-1.6,1.1c0.7,0.3,1.3,0.7,1.8,1.1
		c0.8,0.7,1.4,1.5,1.9,2.4c0.5,1,0.9,2,1.1,3.1c0.2,1.1,0.4,2.2,0.5,3.4c0,0.7,0.1,1.5,0.1,2.5c0,1,0.1,1.9,0.2,2.9
		c0.1,1,0.3,1.9,0.5,2.8C99.4,73.7,99.8,74.4,100.3,75.1"/>
	<path class="st0" d="M19.3,12.1c2.7,0,5.5,0.4,8,1.4c2.4,0.9,4.6,2.3,6.4,4.1c1.9,2,3.3,4.3,4.3,6.9c1.1,3.1,1.6,6.4,1.5,9.7
		c0,3-0.4,6.1-1.3,9c-0.8,2.6-2,5-3.8,7.1c-1.7,2-3.9,3.6-6.3,4.7c-2.8,1.2-5.9,1.8-8.9,1.7H0c0,0,0,0,0,0V12.1H19.3z M18.6,48.5
		c1.4,0,2.8-0.2,4.1-0.7c1.4-0.5,2.6-1.3,3.6-2.3c1.1-1.2,2-2.6,2.5-4.2c0.7-2,1-4.1,0.9-6.3c0-2.1-0.2-4.1-0.7-6.1
		c-0.4-1.7-1.1-3.3-2.2-4.7c-1-1.3-2.4-2.3-4-3c-1.9-0.7-4-1.1-6.1-1h-7v28.2L18.6,48.5z"/>
	<path class="st0" d="M55.1,12.1v44.7h-9.8V12.1L55.1,12.1z"/>
	<path class="st0" d="M138,70.9c-3.4,2.9-8.1,4.4-14,4.4c-6.1,0-10.7-1.5-14.1-4.4c-3.3-2.9-5-7.4-5-13.5V29.7h9.8v27.8
		c0,1.2,0.1,2.4,0.3,3.6c0.4,2.3,1.9,4.3,4.1,5.3c1.5,0.6,3.2,0.9,4.8,0.8c3.5,0,5.9-0.8,7.3-2.3c1.3-1.6,2-4,2-7.4V29.7h9.8v27.8
		C143,63.5,141.4,68,138,70.9z"/>
	<path class="st0" d="M169.4,29.7c2.4-0.1,4.9,0.4,7.1,1.2c1.8,0.7,3.4,1.8,4.8,3.2c1.2,1.3,2.1,2.9,2.7,4.6c1.1,3.4,1.1,7.2,0,10.6
		c-0.6,1.7-1.5,3.3-2.7,4.6c-1.3,1.4-3,2.5-4.8,3.2c-2.3,0.9-4.7,1.3-7.1,1.2h-10.3v16h-9.8c0,0,0,0,0,0V29.7H169.4z M166.8,50.7
		c1.1,0,2.2-0.1,3.3-0.2c1-0.1,1.9-0.5,2.8-1c0.8-0.5,1.5-1.2,1.9-2c0.5-1.1,0.8-2.3,0.7-3.4c0-1.2-0.2-2.4-0.7-3.4
		c-0.4-0.8-1.1-1.5-1.9-2c-0.8-0.5-1.8-0.8-2.8-1c-1.1-0.2-2.2-0.3-3.3-0.2h-7.6v13.4H166.8z"/>
	<path class="st0" d="M186.4,37.9v-8.3H223v8.3h-13.4v36.4h-9.8V37.9L186.4,37.9L186.4,37.9z"/>
	<path class="st0" d="M239.1,29.7v44.7h-9.8V29.7L239.1,29.7z"/>
	<path class="st0" d="M245.7,42.9c0.9-2.8,2.4-5.3,4.3-7.5c1.9-2.2,4.3-3.9,6.9-5c5.9-2.4,12.6-2.4,18.5,0c2.6,1.2,5,2.9,6.9,5
		c1.9,2.2,3.4,4.7,4.3,7.5c1,3,1.5,6.1,1.5,9.3c0,3.1-0.5,6.2-1.5,9.1c-0.9,2.7-2.4,5.2-4.3,7.4c-1.9,2.1-4.3,3.8-6.9,4.9
		c-5.9,2.4-12.6,2.4-18.5,0c-2.6-1.1-5-2.8-6.9-4.9c-1.9-2.1-3.4-4.6-4.3-7.4c-1-2.9-1.5-6-1.5-9.1C244.1,49,244.6,45.9,245.7,42.9z
		 M254.6,57.7c0.4,1.7,1.1,3.3,2.1,4.8c1,1.4,2.2,2.6,3.8,3.4c3.6,1.7,7.7,1.7,11.3,0c1.5-0.8,2.8-2,3.8-3.4c1-1.5,1.7-3.1,2.1-4.8
		c0.4-1.8,0.7-3.6,0.7-5.5c0-1.9-0.2-3.8-0.7-5.7c-0.4-1.7-1.1-3.4-2.1-4.9c-1-1.4-2.2-2.6-3.8-3.4c-3.6-1.7-7.7-1.7-11.3,0
		c-1.5,0.8-2.8,2-3.8,3.4c-1,1.5-1.7,3.2-2.1,4.9c-0.4,1.9-0.7,3.8-0.7,5.7C254,54,254.2,55.9,254.6,57.7L254.6,57.7z"/>
	<path class="st0" d="M302.9,29.7l18.7,30h0.1v-30h9.2v44.7h-9.8l-18.6-29.9h-0.1v29.9h-9.2c0,0,0,0,0,0V29.7H302.9z"/>
	<path class="st0" d="M255.6,18.8c0.4-0.5,0.9-1,1.5-1.5c0.7-0.5,1.4-1.1,2.2-1.6c0.7-0.5,1.5-1,2.2-1.5c0.7-0.5,1.4-1.1,2-1.7
		c0.6-0.6,1.1-1.4,1.5-2.2c0.4-0.9,0.6-1.9,0.6-3c0-1-0.2-2.1-0.6-3c-0.4-0.9-1-1.6-1.7-2.3c-0.7-0.6-1.6-1.1-2.5-1.4
		c-1-0.3-2-0.5-3-0.5c-1.2,0-2.5,0.2-3.6,0.7c-1,0.4-1.9,1.1-2.6,2c-0.7,0.9-1.2,1.8-1.6,2.9l0,0c-0.3,1.2-0.5,2.4-0.4,3.6l0,0.3
		h4.8V9.4c0-0.6,0.1-1.2,0.2-1.7c0.1-0.5,0.3-1.1,0.6-1.5c0.2-0.4,0.6-0.8,1-1.1c0.4-0.3,1-0.4,1.5-0.4c0.8,0,1.6,0.3,2.2,0.8
		c0.6,0.6,0.9,1.4,0.8,2.3c0,0.6-0.1,1.1-0.4,1.6c-0.3,0.5-0.7,1-1.1,1.3c-0.4,0.4-0.9,0.8-1.4,1.1c-0.5,0.3-1.1,0.7-1.5,1
		c-0.9,0.6-1.8,1.3-2.7,1.9c-0.8,0.6-1.6,1.3-2.3,2.1c-0.7,0.8-1.2,1.7-1.5,2.6c-0.4,1.1-0.6,2.3-0.6,3.4v0.3h16.7v-4.4H255.6z"/>
	<path class="st0" d="M268,7.2c0.5-1.4,1.2-2.6,2.2-3.7c1-1.1,2.1-1.9,3.5-2.5c3-1.2,6.3-1.2,9.3,0c1.3,0.6,2.5,1.4,3.4,2.5
		c1,1.1,1.7,2.4,2.2,3.7c0.5,1.5,0.8,3.1,0.8,4.7c0,1.6-0.2,3.1-0.8,4.6c-0.5,1.4-1.2,2.6-2.2,3.7c-1,1.1-2.1,1.9-3.4,2.5
		c-3,1.2-6.3,1.2-9.3,0c-1.3-0.6-2.5-1.4-3.5-2.5c-1-1.1-1.7-2.3-2.2-3.7c-0.5-1.5-0.8-3-0.8-4.6C267.2,10.2,267.5,8.7,268,7.2z
		 M272.5,14.5c0.2,0.9,0.6,1.7,1,2.4c0.5,0.7,1.1,1.3,1.9,1.7c1.8,0.9,3.9,0.9,5.6,0c0.8-0.4,1.4-1,1.9-1.7c0.5-0.7,0.8-1.5,1-2.4
		c0.2-0.9,0.3-1.8,0.3-2.7c0-1-0.1-1.9-0.3-2.8c-0.2-0.9-0.6-1.7-1-2.5c-0.5-0.7-1.1-1.3-1.9-1.7c-1.8-0.9-3.9-0.9-5.6,0
		c-0.8,0.4-1.4,1-1.9,1.7c-0.5,0.8-0.9,1.6-1.1,2.5c-0.2,0.9-0.3,1.9-0.3,2.8C272.2,12.7,272.3,13.7,272.5,14.5z"/>
	<path class="st0" d="M297.9,18.8c0.4-0.5,0.9-1,1.5-1.5c0.7-0.5,1.4-1.1,2.2-1.6c0.7-0.5,1.5-1,2.2-1.5c0.7-0.5,1.4-1.1,2-1.7
		c0.6-0.6,1.1-1.4,1.5-2.2c0.4-0.9,0.6-1.9,0.6-3c0-1-0.2-2.1-0.6-3c-0.4-0.9-1-1.6-1.7-2.3c-0.7-0.6-1.6-1.1-2.5-1.4
		c-1-0.3-2-0.5-3-0.5c-1.2,0-2.5,0.2-3.6,0.7c-1,0.4-1.9,1.1-2.6,2c-0.7,0.9-1.2,1.8-1.6,2.9c-0.3,1.2-0.5,2.4-0.5,3.6l0,0.3h4.8
		V9.4c0-0.6,0.1-1.2,0.2-1.7c0.1-0.5,0.3-1.1,0.5-1.5c0.2-0.4,0.6-0.8,1-1.1c0.4-0.3,1-0.4,1.5-0.4c0.8,0,1.6,0.3,2.2,0.8
		c0.6,0.6,0.9,1.4,0.8,2.3c0,0.6-0.1,1.1-0.4,1.6c-0.3,0.5-0.7,1-1.1,1.3c-0.4,0.4-0.9,0.8-1.4,1.1c-0.5,0.3-1.1,0.7-1.5,1
		c-0.9,0.6-1.8,1.3-2.7,1.9c-0.8,0.6-1.6,1.3-2.3,2.1c-0.7,0.8-1.2,1.7-1.5,2.6c-0.4,1.1-0.6,2.3-0.6,3.4v0.3H308v-4.4H297.9z"/>
	<path class="st0" d="M310.3,7.2c0.5-1.4,1.2-2.6,2.2-3.7c1-1.1,2.1-1.9,3.5-2.5c3-1.2,6.3-1.2,9.3,0c1.3,0.6,2.5,1.4,3.4,2.5
		c1,1.1,1.7,2.4,2.2,3.7c0.5,1.5,0.8,3.1,0.8,4.7c0,1.6-0.2,3.1-0.8,4.6c-0.5,1.4-1.2,2.6-2.2,3.7c-1,1.1-2.1,1.9-3.4,2.5
		c-3,1.2-6.3,1.2-9.3,0c-1.3-0.6-2.5-1.4-3.5-2.5c-1-1.1-1.7-2.3-2.2-3.7c-0.5-1.5-0.8-3-0.8-4.6C309.6,10.2,309.8,8.7,310.3,7.2z
		 M314.8,14.5c0.2,0.9,0.6,1.7,1,2.4c0.5,0.7,1.1,1.3,1.9,1.7c1.8,0.9,3.9,0.9,5.6,0c0.8-0.4,1.4-1,1.9-1.7c0.5-0.7,0.8-1.5,1-2.4
		c0.2-0.9,0.3-1.8,0.3-2.7c0-1-0.1-1.9-0.3-2.8c-0.2-0.9-0.6-1.7-1-2.5c-0.5-0.7-1.1-1.3-1.9-1.7c-1.8-0.9-3.9-0.9-5.6,0
		c-0.8,0.4-1.4,1-1.9,1.7c-0.5,0.8-0.8,1.6-1,2.5c-0.2,0.9-0.3,1.9-0.3,2.8C314.5,12.7,314.6,13.7,314.8,14.5L314.8,14.5z"/>
</g>
</svg>
